<svg width="40" height="40" viewBox="0 0 40 40" fill="none" xmlns="http://www.w3.org/2000/svg">
<rect width="40" height="40" rx="20" fill="#F8F6F2"/>
<path d="M13.5709 15.887C13.2844 14 14.6149 12.305 16.6474 11.684C17.0081 11.5744 17.3969 11.6062 17.7351 11.7727C18.0732 11.9393 18.3354 12.2282 18.4684 12.581L19.1209 14.321C19.2259 14.6009 19.2449 14.9058 19.1754 15.1966C19.1059 15.4874 18.9511 15.7508 18.7309 15.953L16.7899 17.7305C16.6941 17.8182 16.6227 17.9293 16.5827 18.0528C16.5428 18.1764 16.5356 18.3083 16.5619 18.4355L16.5799 18.5135L16.6264 18.7085C16.8684 19.6557 17.2361 20.5663 17.7199 21.416C18.2481 22.3181 18.9027 23.1399 19.6639 23.8565L19.7239 23.9105C19.8208 23.9965 19.9383 24.0559 20.065 24.083C20.1917 24.1101 20.3233 24.1039 20.4469 24.065L22.9564 23.2745C23.2416 23.1849 23.547 23.1826 23.8335 23.2679C24.12 23.3531 24.3745 23.5221 24.5644 23.753L25.7524 25.1945C26.2474 25.7945 26.1874 26.6765 25.6189 27.206C24.0634 28.6565 21.9244 28.9535 20.4364 27.758C18.6117 26.2875 17.0739 24.4929 15.9004 22.4645C14.7154 20.4387 13.9259 18.2069 13.5709 15.887ZM18.1339 18.5345L19.7419 17.0585C20.1826 16.6543 20.4925 16.1276 20.6318 15.546C20.771 14.9644 20.7333 14.3544 20.5234 13.7945L19.8724 12.0545C19.6053 11.3446 19.078 10.7631 18.3977 10.4279C17.7173 10.0927 16.9349 10.0291 16.2094 10.25C13.6849 11.0225 11.6584 13.286 12.0874 16.1135C12.3874 18.0875 13.0789 20.5985 14.6044 23.2205C15.8705 25.4076 17.5293 27.3425 19.4974 28.928C21.7294 30.7205 24.7084 30.1085 26.6434 28.3055C27.197 27.7899 27.5331 27.0826 27.583 26.3277C27.6329 25.5728 27.3929 24.8274 26.9119 24.2435L25.7239 22.8005C25.3438 22.3392 24.8347 22.0019 24.2617 21.832C23.6887 21.662 23.078 21.667 22.5079 21.8465L20.4244 22.502C19.8864 21.9473 19.4152 21.3317 19.0204 20.6675C18.6394 19.9958 18.3422 19.28 18.1354 18.536" fill="url(#paint0_linear_290_1347)"/>
<defs>
<linearGradient id="paint0_linear_290_1347" x1="19.8096" y1="10.1206" x2="19.8096" y2="30.004" gradientUnits="userSpaceOnUse">
<stop stop-color="#A6895A"/>
<stop offset="1" stop-color="#C5AE83"/>
</linearGradient>
</defs>
</svg>
