<svg width="48" height="48" viewBox="0 0 48 48" fill="none" xmlns="http://www.w3.org/2000/svg">
<path d="M47.0119 20.5669L42.225 11.0044C42.093 10.7401 41.9101 10.5043 41.6869 10.3107C41.4637 10.117 41.2045 9.9692 40.9242 9.8757C40.6439 9.7822 40.3479 9.74484 40.0531 9.76574C39.7584 9.78665 39.4706 9.86541 39.2063 9.99754L34.29 12.4463L24.1875 9.77629C24.0647 9.74369 23.9354 9.74369 23.8125 9.77629L13.71 12.4463L8.79379 9.98817C8.52947 9.85604 8.24171 9.77728 7.94694 9.75637C7.65218 9.73546 7.35618 9.77283 7.07586 9.86633C6.79554 9.95983 6.53638 10.1076 6.31318 10.3013C6.08998 10.495 5.90712 10.7307 5.77504 10.995L0.988166 20.5669C0.85604 20.8312 0.777275 21.119 0.75637 21.4138C0.735465 21.7085 0.772829 22.0045 0.866328 22.2848C0.959827 22.5652 1.10763 22.8243 1.3013 23.0475C1.49496 23.2707 1.7307 23.4536 1.99504 23.5857L7.11192 26.145L17.565 33.6113C17.6412 33.6659 17.7271 33.7054 17.8182 33.7275L29.8182 36.7275C29.943 36.7602 30.0742 36.7602 30.199 36.7273C30.3238 36.6945 30.4381 36.63 30.5307 36.54L40.9444 26.1263L46.0069 23.595C46.2713 23.463 46.507 23.2801 46.7007 23.0569C46.8943 22.8337 47.0421 22.5745 47.1356 22.2942C47.2291 22.0139 47.2665 21.7179 47.2456 21.4231C47.2247 21.1284 47.1459 20.8406 47.0138 20.5763L47.0119 20.5669ZM37.4494 27.495L30.4744 21.9075C30.33 21.7917 30.1479 21.7333 29.963 21.7437C29.7782 21.7541 29.6037 21.8325 29.4732 21.9638C25.8188 25.6463 21.7219 25.1719 19.1063 23.5013C19.01 23.4395 18.9288 23.3569 18.8688 23.2595C18.8088 23.1622 18.7714 23.0526 18.7594 22.9388C18.7466 22.8293 18.7587 22.7183 18.7947 22.6141C18.8307 22.5099 18.8898 22.4151 18.9675 22.3369L27.3038 14.25H34.0369L39.5869 25.3519L37.4494 27.495ZM2.28942 21.81C2.22946 21.6243 2.24425 21.4225 2.33067 21.2475L7.12504 11.6663C7.18656 11.5425 7.28111 11.4381 7.39824 11.3646C7.51538 11.2911 7.65054 11.2515 7.78879 11.25C7.90478 11.2507 8.01902 11.2783 8.12254 11.3307L12.6225 13.5807L7.16442 24.495L2.66442 22.245C2.5764 22.2007 2.49797 22.1395 2.43363 22.0649C2.36928 21.9902 2.32028 21.9036 2.28942 21.81ZM29.7694 35.1694L18.3207 32.3063L8.45817 25.2619L14.1469 13.875L24 11.2763L29.5725 12.75H27C26.8047 12.7499 26.6171 12.8259 26.4769 12.9619L17.9082 21.2738C17.6697 21.5123 17.4879 21.8013 17.3762 22.1195C17.2645 22.4377 17.2257 22.777 17.2628 23.1122C17.2999 23.4474 17.4119 23.77 17.5904 24.0561C17.769 24.3422 18.0096 24.5845 18.2944 24.765C22.0219 27.1482 26.5688 26.64 30.0432 23.4882L36.375 28.5619L29.7694 35.1694ZM45.7069 21.81C45.6761 21.9036 45.627 21.9902 45.5627 22.0649C45.4984 22.1395 45.4199 22.2007 45.3319 22.245L40.8319 24.495L35.3775 13.5807L39.8775 11.3307C40.0546 11.2445 40.2584 11.2313 40.445 11.2941C40.6317 11.3569 40.7861 11.4906 40.875 11.6663L45.6619 21.2382C45.7533 21.4148 45.7709 21.6205 45.7107 21.81H45.7069ZM23.9888 40.6875C23.9472 40.8488 23.8531 40.9915 23.7214 41.0934C23.5896 41.1952 23.4278 41.2503 23.2613 41.25C23.1981 41.2505 23.1351 41.2429 23.0738 41.2275L15.2588 39.2719C15.1672 39.2495 15.0807 39.2101 15.0038 39.1557L10.065 35.625C9.90318 35.5094 9.79387 35.3342 9.76117 35.138C9.72847 34.9418 9.77505 34.7407 9.89067 34.5788C10.0063 34.4169 10.1815 34.3076 10.3777 34.2749C10.5739 34.2422 10.7751 34.2888 10.9369 34.4044L15.7594 37.8488L23.4469 39.7707C23.5429 39.7949 23.6332 39.8379 23.7124 39.8973C23.7917 39.9566 23.8585 40.031 23.9089 40.1162C23.9592 40.2015 23.9922 40.2958 24.0059 40.3939C24.0197 40.4919 24.0138 40.5917 23.9888 40.6875Z" fill="url(#paint0_linear_233_4949)"/>
<defs>
<linearGradient id="paint0_linear_233_4949" x1="24.001" y1="9.75073" x2="24.001" y2="41.2501" gradientUnits="userSpaceOnUse">
<stop stop-color="#A6895A"/>
<stop offset="1" stop-color="#C5AE83"/>
</linearGradient>
</defs>
</svg>
