<svg width="48" height="48" viewBox="0 0 48 48" fill="none" xmlns="http://www.w3.org/2000/svg">
<path d="M40.9422 24.4285C40.6689 27.8636 39.4152 31.1481 37.3301 33.8917C35.245 36.6353 32.4161 38.7227 29.1796 39.9059C25.9431 41.0891 22.4349 41.3183 19.072 40.5664C15.709 39.8145 12.6326 38.113 10.2081 35.6641C7.78371 33.2152 6.11323 30.1218 5.39514 26.7514C4.67705 23.3811 4.94155 19.8754 6.1572 16.6509C7.37285 13.4265 9.48856 10.6187 12.253 8.56132C15.0174 6.50389 18.3143 5.28326 21.752 5.04443" stroke="url(#paint0_linear_233_5004)" stroke-width="1.5" stroke-linecap="round" stroke-linejoin="round"/>
<path d="M30.7239 26.0179C30.2238 27.3049 29.4108 28.4471 28.3584 29.341C27.306 30.2349 26.0473 30.8524 24.6963 31.1376C23.3452 31.4228 21.9444 31.3668 20.6205 30.9746C19.2965 30.5823 18.0913 29.8663 17.1136 28.8911C16.136 27.916 15.4168 26.7126 15.0212 25.3896C14.6255 24.0667 14.5659 22.666 14.8476 21.3143C15.1294 19.9625 15.7436 18.7023 16.6348 17.6476C17.526 16.5929 18.6661 15.7769 19.9519 15.2735M22.9979 22.9995L29.9208 16.0766M29.9208 16.0766L35.4591 17.4612L40.9974 11.9229L35.4591 10.5383L34.0745 5L28.5362 10.5383L29.9208 16.0766Z" stroke="url(#paint1_linear_233_5004)" stroke-width="1.5" stroke-linecap="round" stroke-linejoin="round"/>
<defs>
<linearGradient id="paint0_linear_233_5004" x1="22.9711" y1="5.04443" x2="22.9711" y2="41.0001" gradientUnits="userSpaceOnUse">
<stop stop-color="#A6895A"/>
<stop offset="1" stop-color="#C5AE83"/>
</linearGradient>
<linearGradient id="paint1_linear_233_5004" x1="27.8351" y1="5" x2="27.8351" y2="31.3168" gradientUnits="userSpaceOnUse">
<stop stop-color="#A6895A"/>
<stop offset="1" stop-color="#C5AE83"/>
</linearGradient>
</defs>
</svg>
