<svg width="48" height="48" viewBox="0 0 48 48" fill="none" xmlns="http://www.w3.org/2000/svg">
<g clip-path="url(#clip0_21_152)">
<path d="M1.60338 23.7955C1.60219 27.7575 2.63746 31.6262 4.60591 35.0359L1.41504 46.6864L13.3377 43.5602C16.6224 45.3505 20.321 46.2955 24.0849 46.2965H24.0949C36.4897 46.2965 46.5795 36.2103 46.5847 23.8133C46.5871 17.8059 44.2498 12.1571 40.0033 7.90725C35.7575 3.65765 30.1106 1.31609 24.0939 1.31348C11.6976 1.31348 1.60859 11.399 1.60338 23.7955Z" fill="url(#paint0_linear_21_152)"/>
<path d="M0.800421 23.7885C0.799001 27.8931 1.87147 31.9001 3.91003 35.4319L0.604736 47.5L12.9551 44.2617C16.358 46.1172 20.1892 47.0954 24.0879 47.0968H24.0979C36.9374 47.0968 47.3896 36.6479 47.3951 23.8071C47.3972 17.5839 44.9758 11.7322 40.5776 7.32995C36.1788 2.92827 30.3299 0.502605 24.0979 0.5C11.256 0.5 0.805631 10.9473 0.800421 23.7885ZM8.15515 34.8237L7.6941 34.0916C5.7555 31.0093 4.73233 27.4475 4.73375 23.7899C4.73802 13.1168 13.4242 4.43357 24.1052 4.43357C29.2776 4.4357 34.1388 6.452 37.795 10.1105C41.4511 13.7693 43.4629 18.6329 43.4615 23.8057C43.4567 34.479 34.7704 43.1634 24.0979 43.1634H24.0903C20.6152 43.1615 17.207 42.2284 14.2346 40.4649L13.5272 40.0453L6.1983 41.9669L8.15515 34.8237Z" fill="url(#paint1_linear_21_152)"/>
<path d="M18.275 14.0527C17.8389 13.0832 17.38 13.0638 16.9652 13.0468C16.6257 13.0323 16.2374 13.0332 15.8496 13.0332C15.4613 13.0332 14.8307 13.1792 14.2974 13.7615C13.7637 14.344 12.2598 15.7522 12.2598 18.6161C12.2598 21.4803 14.346 24.2478 14.6367 24.6366C14.9278 25.0247 18.6638 31.0899 24.5805 33.4232C29.4979 35.3622 30.4986 34.9766 31.5659 34.8794C32.6331 34.7825 35.01 33.4717 35.4949 32.1124C35.9801 30.7533 35.9801 29.5882 35.8347 29.3449C35.6892 29.1023 35.3009 28.9566 34.7188 28.6656C34.1365 28.3745 31.2747 26.9661 30.7412 26.7718C30.2075 26.5778 29.8194 26.4809 29.4311 27.0637C29.0431 27.6458 27.9282 28.9566 27.5885 29.3449C27.249 29.7339 26.9093 29.7824 26.3272 29.4913C25.7449 29.1992 23.87 28.5851 21.646 26.6022C19.9154 25.0592 18.7472 23.1538 18.4075 22.571C18.068 21.989 18.3712 21.6736 18.6631 21.3834C18.9246 21.1226 19.2454 20.7038 19.5366 20.364C19.827 20.0241 19.9239 19.7815 20.1179 19.3932C20.3122 19.0047 20.2151 18.6647 20.0696 18.3736C19.9239 18.0824 18.7927 15.2038 18.275 14.0527Z" fill="white"/>
</g>
<defs>
<linearGradient id="paint0_linear_21_152" x1="2259.9" y1="4538.61" x2="2259.9" y2="1.31564" gradientUnits="userSpaceOnUse">
<stop stop-color="#1FAF38"/>
<stop offset="1" stop-color="#60D669"/>
</linearGradient>
<linearGradient id="paint1_linear_21_152" x1="2340.13" y1="4700.51" x2="2340.13" y2="0.494117" gradientUnits="userSpaceOnUse">
<stop stop-color="#F9F9F9"/>
<stop offset="1" stop-color="white"/>
</linearGradient>
<clipPath id="clip0_21_152">
<rect width="48" height="48" fill="white"/>
</clipPath>
</defs>
</svg>
