<svg xmlns="http://www.w3.org/2000/svg" width="41" height="40" viewBox="0 0 41 40" fill="none">
  <path d="M15.1669 16.0001V14.5186C15.1669 13.7328 15.5013 12.9791 16.0967 12.4235C16.692 11.8678 17.4995 11.5556 18.3415 11.5556H21.5161C22.358 11.5556 23.1655 11.8678 23.7609 12.4235C24.3562 12.9791 24.6907 13.7328 24.6907 14.5186V16.0001M16.7542 5.62971C16.7542 6.41554 17.0886 7.16918 17.684 7.72484C18.2793 8.28051 19.0868 8.59267 19.9288 8.59267C20.7707 8.59267 21.5782 8.28051 22.1736 7.72484C22.7689 7.16918 23.1034 6.41554 23.1034 5.62971C23.1034 4.84388 22.7689 4.09024 22.1736 3.53458C21.5782 2.97892 20.7707 2.66675 19.9288 2.66675C19.0868 2.66675 18.2793 2.97892 17.684 3.53458C17.0886 4.09024 16.7542 4.84388 16.7542 5.62971Z" stroke="white" stroke-width="2" stroke-linecap="round" stroke-linejoin="round"/>
  <path d="M8.5 18.574H31.8333M9.7963 18.574V35.4258M30.537 35.4258V18.574M9.7963 23.7592H30.537M24.0556 18.574V28.9443C24.0556 29.6319 24.3287 30.2914 24.8149 30.7776C25.3011 31.2638 25.9606 31.5369 26.6481 31.5369H30.537" stroke="white" stroke-width="2" stroke-linecap="round" stroke-linejoin="round"/>
</svg>