<svg xmlns="http://www.w3.org/2000/svg" width="41" height="40" viewBox="0 0 41 40" fill="none">
  <path d="M17.2833 25.5667C19.1417 27.0333 21.85 27.0333 23.7083 25.5667C25.5667 24.1 26.0383 21.5867 24.8267 19.6083L20.5 13.3333L16.1633 19.6083C14.9533 21.5867 15.425 24.0983 17.2833 25.5667Z" stroke="white" stroke-width="2" stroke-linecap="round" stroke-linejoin="round"/>
  <path d="M5.5 20C5.5 21.9698 5.88799 23.9204 6.64181 25.7403C7.39563 27.5601 8.50052 29.2137 9.8934 30.6066C11.2863 31.9995 12.9399 33.1044 14.7597 33.8582C16.5796 34.612 18.5302 35 20.5 35C22.4698 35 24.4204 34.612 26.2403 33.8582C28.0601 33.1044 29.7137 31.9995 31.1066 30.6066C32.4995 29.2137 33.6044 27.5601 34.3582 25.7403C35.112 23.9204 35.5 21.9698 35.5 20C35.5 18.0302 35.112 16.0796 34.3582 14.2597C33.6044 12.4399 32.4995 10.7863 31.1066 9.3934C29.7137 8.00052 28.0601 6.89563 26.2403 6.14181C24.4204 5.38799 22.4698 5 20.5 5C18.5302 5 16.5796 5.38799 14.7597 6.14181C12.9399 6.89563 11.2863 8.00052 9.8934 9.3934C8.50052 10.7863 7.39563 12.4399 6.64181 14.2597C5.88799 16.0796 5.5 18.0302 5.5 20Z" stroke="white" stroke-width="2" stroke-linecap="round" stroke-linejoin="round"/>
</svg>