<svg xmlns="http://www.w3.org/2000/svg" width="41" height="40" viewBox="0 0 41 40" fill="none">
<path d="M13.8333 35H27.1667M20.5 26.6667V35M20.5 26.6667C26.0233 26.6667 30.5 23.3533 30.5 18.3333L28.8333 8.33333M20.5 26.6667C14.9767 26.6667 10.5 23.3533 10.5 18.3333L12.1667 8.33333M28.8333 8.33333C28.8333 9.21739 27.9554 10.0652 26.3926 10.6904C24.8298 11.3155 22.7101 11.6667 20.5 11.6667C18.2899 11.6667 16.1702 11.3155 14.6074 10.6904C13.0446 10.0652 12.1667 9.21739 12.1667 8.33333M28.8333 8.33333C28.8333 7.44928 27.9554 6.60143 26.3926 5.97631C24.8298 5.35119 22.7101 5 20.5 5C18.2899 5 16.1702 5.35119 14.6074 5.97631C13.0446 6.60143 12.1667 7.44928 12.1667 8.33333" stroke="white" stroke-width="2" stroke-linecap="round" stroke-linejoin="round"/>
</svg>