<svg xmlns="http://www.w3.org/2000/svg" width="41" height="40" viewBox="0 0 41 40" fill="none">
  <path d="M27.1667 8.33341L32.1667 13.3334L28.8333 15.0001L35.5 21.6667L30.5 23.3334L37.1667 30.0001H22.1667M25.5 35.0001V30.0001M13.8333 21.6667L10.5 18.3334M13.8333 20.0001L17.1667 16.6667M13.8333 35.0001V13.3334M10.2066 26.6667C9.47737 26.624 8.76636 26.422 8.12359 26.075C7.48081 25.728 6.92187 25.2444 6.48609 24.6581C6.05031 24.0719 5.74826 23.3973 5.60121 22.6818C5.45415 21.9663 5.46566 21.2272 5.63492 20.5167C5.0307 20.0135 4.55368 19.3749 4.24257 18.6528C3.93147 17.9307 3.79506 17.1453 3.84442 16.3606C3.89378 15.5759 4.12752 14.8138 4.52666 14.1364C4.9258 13.4589 5.47908 12.8852 6.14158 12.4617C5.56053 11.4294 5.36484 10.2244 5.58935 9.06134C5.81387 7.89827 6.44402 6.85269 7.36752 6.11088C8.29103 5.36907 9.4479 4.97923 10.632 5.01081C11.8161 5.04239 12.9506 5.49335 13.8332 6.28333C14.7161 5.4946 15.8502 5.04471 17.0336 5.01374C18.2171 4.98278 19.3731 5.37273 20.296 6.11421C21.2189 6.85569 21.8488 7.90058 22.0735 9.06291C22.2982 10.2252 22.1033 11.4296 21.5232 12.4617C22.1859 12.885 22.7393 13.4587 23.1386 14.136C23.5379 14.8134 23.7718 15.5754 23.8213 16.3602C23.8708 17.1449 23.7346 17.9303 23.4236 18.6525C23.1126 19.3747 22.6357 20.0134 22.0316 20.5167C22.2065 21.2513 22.2128 22.0161 22.0499 22.7535C21.887 23.4909 21.5592 24.1819 21.091 24.7745C20.6229 25.3671 20.0266 25.8459 19.3469 26.1751C18.6672 26.5042 17.9218 26.6751 17.1666 26.675H10.4999L10.2066 26.6667Z" stroke="white" stroke-width="2" stroke-linecap="round" stroke-linejoin="round"/>
</svg>