<svg xmlns="http://www.w3.org/2000/svg" width="41" height="40" viewBox="0 0 41 40" fill="none">
  <path d="M3.83334 20H5.5M10.5 13.3333H7.16667C6.72464 13.3333 6.30072 13.5089 5.98816 13.8215C5.6756 14.134 5.5 14.558 5.5 15V25C5.5 25.442 5.6756 25.8659 5.98816 26.1785C6.30072 26.4911 6.72464 26.6667 7.16667 26.6667H10.5M15.5 20H25.5M30.5 13.3333H33.8333C34.2754 13.3333 34.6993 13.5089 35.0118 13.8215C35.3244 14.134 35.5 14.558 35.5 15V25C35.5 25.442 35.3244 25.8659 35.0118 26.1785C34.6993 26.4911 34.2754 26.6667 33.8333 26.6667H30.5M37.1667 20H35.5M10.5 11.6667V28.3333C10.5 28.7754 10.6756 29.1993 10.9882 29.5118C11.3007 29.8244 11.7246 30 12.1667 30H13.8333C14.2754 30 14.6993 29.8244 15.0118 29.5118C15.3244 29.1993 15.5 28.7754 15.5 28.3333V11.6667C15.5 11.2246 15.3244 10.8007 15.0118 10.4882C14.6993 10.1756 14.2754 10 13.8333 10H12.1667C11.7246 10 11.3007 10.1756 10.9882 10.4882C10.6756 10.8007 10.5 11.2246 10.5 11.6667ZM25.5 11.6667V28.3333C25.5 28.7754 25.6756 29.1993 25.9882 29.5118C26.3007 29.8244 26.7246 30 27.1667 30H28.8333C29.2754 30 29.6993 29.8244 30.0118 29.5118C30.3244 29.1993 30.5 28.7754 30.5 28.3333V11.6667C30.5 11.2246 30.3244 10.8007 30.0118 10.4882C29.6993 10.1756 29.2754 10 28.8333 10H27.1667C26.7246 10 26.3007 10.1756 25.9882 10.4882C25.6756 10.8007 25.5 11.2246 25.5 11.6667Z" stroke="white" stroke-width="2" stroke-linecap="round" stroke-linejoin="round"/>
</svg>