<svg xmlns="http://www.w3.org/2000/svg" width="41" height="40" viewBox="0 0 41 40" fill="none">
  <path d="M33 33.3333C33.221 33.3333 33.433 33.2455 33.5893 33.0893C33.7455 32.933 33.8333 32.721 33.8333 32.5C33.8333 32.279 33.7455 32.067 33.5893 31.9107C33.433 31.7545 33.221 31.6667 33 31.6667C32.779 31.6667 32.567 31.7545 32.4107 31.9107C32.2545 32.067 32.1667 32.279 32.1667 32.5C32.1667 32.721 32.2545 32.933 32.4107 33.0893C32.567 33.2455 32.779 33.3333 33 33.3333Z" fill="white"/>
  <path d="M5.5 28.3333L13.8333 30L15.0833 27.5M23.8333 35V28.3333L17.1667 23.3333L18.8333 13.3333M18.8333 13.3333L10.5 15V20M18.8333 13.3333L23.8333 18.3333L28.8333 20M18.8333 6.66667C18.8333 7.10869 19.0089 7.53262 19.3215 7.84518C19.6341 8.15774 20.058 8.33333 20.5 8.33333C20.942 8.33333 21.366 8.15774 21.6785 7.84518C21.9911 7.53262 22.1667 7.10869 22.1667 6.66667C22.1667 6.22464 21.9911 5.80072 21.6785 5.48816C21.366 5.17559 20.942 5 20.5 5C20.058 5 19.6341 5.17559 19.3215 5.48816C19.0089 5.80072 18.8333 6.22464 18.8333 6.66667ZM33 33.3333C33.221 33.3333 33.433 33.2455 33.5893 33.0893C33.7455 32.933 33.8333 32.721 33.8333 32.5C33.8333 32.279 33.7455 32.067 33.5893 31.9107C33.433 31.7545 33.221 31.6667 33 31.6667C32.779 31.6667 32.567 31.7545 32.4107 31.9107C32.2545 32.067 32.1667 32.279 32.1667 32.5C32.1667 32.721 32.2545 32.933 32.4107 33.0893C32.567 33.2455 32.779 33.3333 33 33.3333Z" stroke="white" stroke-width="2" stroke-linecap="round" stroke-linejoin="round"/>
</svg>