<svg xmlns="http://www.w3.org/2000/svg" width="41" height="40" viewBox="0 0 41 40" fill="none">
  <path d="M17.1667 16.6667L20.5 13.3334L23.8333 16.6667M17.1667 23.3334L20.5 26.6667L23.8333 23.3334M8.83334 8.33341C8.83334 7.89139 9.00893 7.46746 9.32149 7.1549C9.63405 6.84234 10.058 6.66675 10.5 6.66675H30.5C30.942 6.66675 31.366 6.84234 31.6785 7.1549C31.9911 7.46746 32.1667 7.89139 32.1667 8.33341V31.6667C32.1667 32.1088 31.9911 32.5327 31.6785 32.8453C31.366 33.1578 30.942 33.3334 30.5 33.3334H10.5C10.058 33.3334 9.63405 33.1578 9.32149 32.8453C9.00893 32.5327 8.83334 32.1088 8.83334 31.6667V8.33341Z" stroke="white" stroke-width="2" stroke-linecap="round" stroke-linejoin="round"/>
</svg>