<svg xmlns="http://www.w3.org/2000/svg" width="41" height="40" viewBox="0 0 41 40" fill="none">
  <path d="M3.83333 33.3334C4.21195 33.8609 4.71328 34.2883 5.29404 34.5787C5.87479 34.869 6.5175 35.0137 7.16666 35.0001C7.81582 35.0137 8.45853 34.869 9.03929 34.5787C9.62004 34.2883 10.1214 33.8609 10.5 33.3334C10.8786 32.8059 11.3799 32.3785 11.9607 32.0881C12.5415 31.7978 13.1842 31.6531 13.8333 31.6667C14.4825 31.6531 15.1252 31.7978 15.706 32.0881C16.2867 32.3785 16.788 32.8059 17.1667 33.3334C17.5453 33.8609 18.0466 34.2883 18.6274 34.5787C19.2081 34.869 19.8508 35.0137 20.5 35.0001C21.1492 35.0137 21.7919 34.869 22.3726 34.5787C22.9534 34.2883 23.4547 33.8609 23.8333 33.3334C24.2119 32.8059 24.7133 32.3785 25.294 32.0881C25.8748 31.7978 26.5175 31.6531 27.1667 31.6667C27.8158 31.6531 28.4585 31.7978 29.0393 32.0881C29.62 32.3785 30.1214 32.8059 30.5 33.3334C30.8786 33.8609 31.3799 34.2883 31.9607 34.5787C32.5415 34.869 33.1842 35.0137 33.8333 35.0001C34.4825 35.0137 35.1252 34.869 35.706 34.5787C36.2867 34.2883 36.788 33.8609 37.1667 33.3334M7.16666 30L5.49999 25H35.5L33.8333 30M20.5 18.3333V25M12.1667 5C14.3883 9.445 14.3883 13.8883 12.1667 18.3333H28.8333C31.055 13.8883 31.055 9.445 28.8333 5M10.5 5H30.5" stroke="white" stroke-width="2" stroke-linecap="round" stroke-linejoin="round"/>
</svg>