<svg xmlns="http://www.w3.org/2000/svg" width="41" height="40" viewBox="0 0 41 40" fill="none">
  <path d="M8.83333 33.3333C8.83333 34.2173 9.18452 35.0652 9.80964 35.6903C10.4348 36.3154 11.2826 36.6666 12.1667 36.6666C13.0507 36.6666 13.8986 36.3154 14.5237 35.6903C15.1488 35.0652 15.5 34.2173 15.5 33.3333M8.83333 33.3333C8.83333 32.4492 9.18452 31.6014 9.80964 30.9762C10.4348 30.3511 11.2826 29.9999 12.1667 29.9999C13.0507 29.9999 13.8986 30.3511 14.5237 30.9762C15.1488 31.6014 15.5 32.4492 15.5 33.3333M8.83333 33.3333H5.5V23.3333M15.5 33.3333H25.5M25.5 33.3333C25.5 34.2173 25.8512 35.0652 26.4763 35.6903C27.1014 36.3154 27.9493 36.6666 28.8333 36.6666C29.7174 36.6666 30.5652 36.3154 31.1904 35.6903C31.8155 35.0652 32.1667 34.2173 32.1667 33.3333M25.5 33.3333C25.5 32.4492 25.8512 31.6014 26.4763 30.9762C27.1014 30.3511 27.9493 29.9999 28.8333 29.9999C29.7174 29.9999 30.5652 30.3511 31.1904 30.9762C31.8155 31.6014 32.1667 32.4492 32.1667 33.3333M32.1667 33.3333H35.5V26.6666C35.5 25.7825 35.1488 24.9347 34.5237 24.3096C33.8986 23.6844 33.0507 23.3333 32.1667 23.3333H30.5M5.5 23.3333L8.83333 14.9999H23.8333L30.5 23.3333M5.5 23.3333H30.5M20.5 23.3333V14.9999M5.5 9.99992L20.5 3.33325L35.5 9.99992" stroke="white" stroke-width="2" stroke-linecap="round" stroke-linejoin="round"/>
</svg>