<svg xmlns="http://www.w3.org/2000/svg" width="41" height="40" viewBox="0 0 41 40" fill="none">
<path d="M3.83333 33.3334C4.21195 33.8609 4.71329 34.2883 5.29404 34.5787C5.87479 34.869 6.51751 35.0137 7.16667 35.0001C7.81583 35.0137 8.45854 34.869 9.03929 34.5787C9.62005 34.2883 10.1214 33.8609 10.5 33.3334C10.8786 32.8059 11.38 32.3785 11.9607 32.0881C12.5415 31.7978 13.1842 31.6531 13.8333 31.6667C14.4825 31.6531 15.1252 31.7978 15.706 32.0881C16.2867 32.3785 16.7881 32.8059 17.1667 33.3334C17.5453 33.8609 18.0466 34.2883 18.6274 34.5787C19.2081 34.869 19.8508 35.0137 20.5 35.0001C21.1492 35.0137 21.7919 34.869 22.3726 34.5787C22.9534 34.2883 23.4547 33.8609 23.8333 33.3334C24.212 32.8059 24.7133 32.3785 25.294 32.0881C25.8748 31.7978 26.5175 31.6531 27.1667 31.6667C27.8158 31.6531 28.4585 31.7978 29.0393 32.0881C29.62 32.3785 30.1214 32.8059 30.5 33.3334C30.8786 33.8609 31.38 34.2883 31.9607 34.5787C32.5415 34.869 33.1842 35.0137 33.8333 35.0001C34.4825 35.0137 35.1252 34.869 35.706 34.5787C36.2867 34.2883 36.7881 33.8609 37.1667 33.3334M3.83333 26.6667C4.21195 27.1942 4.71329 27.6216 5.29404 27.912C5.87479 28.2024 6.51751 28.347 7.16667 28.3334C7.81583 28.347 8.45854 28.2024 9.03929 27.912C9.62005 27.6216 10.1214 27.1942 10.5 26.6667C10.8786 26.1392 11.38 25.7119 11.9607 25.4215C12.5415 25.1311 13.1842 24.9865 13.8333 25.0001C14.4825 24.9865 15.1252 25.1311 15.706 25.4215C16.2867 25.7119 16.7881 26.1392 17.1667 26.6667C17.5453 27.1942 18.0466 27.6216 18.6274 27.912C19.2081 28.2024 19.8508 28.347 20.5 28.3334C21.1492 28.347 21.7919 28.2024 22.3726 27.912C22.9534 27.6216 23.4547 27.1942 23.8333 26.6667C24.212 26.1392 24.7133 25.7119 25.294 25.4215C25.8748 25.1311 26.5175 24.9865 27.1667 25.0001C27.8158 24.9865 28.4585 25.1311 29.0393 25.4215C29.62 25.7119 30.1214 26.1392 30.5 26.6667C30.8786 27.1942 31.38 27.6216 31.9607 27.912C32.5415 28.2024 33.1842 28.347 33.8333 28.3334C34.4825 28.347 35.1252 28.2024 35.706 27.912C36.2867 27.6216 36.7881 27.1942 37.1667 26.6667M25.5 20V7.5C25.5 6.83696 25.7634 6.20107 26.2322 5.73223C26.7011 5.26339 27.337 5 28 5C28.663 5 29.2989 5.26339 29.7678 5.73223C30.2366 6.20107 30.5 6.83696 30.5 7.5M15.5 20V7.5C15.5 6.83696 15.2366 6.20107 14.7678 5.73223C14.2989 5.26339 13.663 5 13 5C12.337 5 11.7011 5.26339 11.2322 5.73223C10.7634 6.20107 10.5 6.83696 10.5 7.5M25.5 8.33333H15.5M15.5 16.6667H25.5" stroke="white" stroke-width="2" stroke-linecap="round" stroke-linejoin="round"/>
</svg>