<svg xmlns="http://www.w3.org/2000/svg" width="41" height="40" viewBox="0 0 41 40" fill="none">
  <path d="M20.5 20V18.6667C20.5 17.9594 20.781 17.2811 21.281 16.781C21.7811 16.281 22.4594 16 23.1667 16H25.8333C26.5406 16 27.2189 16.281 27.719 16.781C28.219 17.2811 28.5 17.9594 28.5 18.6667V20M21.8333 10.6667C21.8333 11.3739 22.1143 12.0522 22.6144 12.5523C23.1145 13.0524 23.7928 13.3333 24.5 13.3333C25.2072 13.3333 25.8855 13.0524 26.3856 12.5523C26.8857 12.0522 27.1667 11.3739 27.1667 10.6667C27.1667 9.95942 26.8857 9.28115 26.3856 8.78105C25.8855 8.28095 25.2072 8 24.5 8C23.7928 8 23.1145 8.28095 22.6144 8.78105C22.1143 9.28115 21.8333 9.95942 21.8333 10.6667Z" stroke="white" stroke-width="2" stroke-linecap="round" stroke-linejoin="round"/>
  <path d="M10.5 20V8.33333C10.5 7.44928 10.8512 6.60143 11.4763 5.97631C12.1014 5.35119 12.9493 5 13.8333 5H18.8333V8.75M7.16667 35L8.83333 32.5M33.8333 35L32.1667 32.5M7.16667 20H33.8333C34.2754 20 34.6993 20.1756 35.0118 20.4882C35.3244 20.8007 35.5 21.2246 35.5 21.6667V26.6667C35.5 28.4348 34.7976 30.1305 33.5474 31.3807C32.2971 32.631 30.6014 33.3333 28.8333 33.3333H12.1667C10.3986 33.3333 8.70286 32.631 7.45262 31.3807C6.20238 30.1305 5.5 28.4348 5.5 26.6667V21.6667C5.5 21.2246 5.67559 20.8007 5.98816 20.4882C6.30072 20.1756 6.72464 20 7.16667 20Z" stroke="white" stroke-width="2" stroke-linecap="round" stroke-linejoin="round"/>
</svg>