<svg xmlns="http://www.w3.org/2000/svg" width="41" height="40" viewBox="0 0 41 40" fill="none">
  <path d="M32.1667 11.6667V23.3333C32.1667 26.4275 30.9375 29.395 28.7496 31.5829C26.5617 33.7708 23.5942 35 20.5 35C17.4058 35 14.4383 33.7708 12.2504 31.5829C10.0625 29.395 8.83333 26.4275 8.83333 23.3333V11.6667M20.5 23.3333H20.5167M5.5 6.66667C5.5 6.22464 5.67559 5.80072 5.98816 5.48816C6.30072 5.17559 6.72464 5 7.16667 5H33.8333C34.2754 5 34.6993 5.17559 35.0118 5.48816C35.3244 5.80072 35.5 6.22464 35.5 6.66667V10C35.5 10.442 35.3244 10.866 35.0118 11.1785C34.6993 11.4911 34.2754 11.6667 33.8333 11.6667H7.16667C6.72464 11.6667 6.30072 11.4911 5.98816 11.1785C5.67559 10.866 5.5 10.442 5.5 10V6.66667ZM13.8333 23.3333C13.8333 25.1014 14.5357 26.7971 15.786 28.0474C17.0362 29.2976 18.7319 30 20.5 30C22.2681 30 23.9638 29.2976 25.214 28.0474C26.4643 26.7971 27.1667 25.1014 27.1667 23.3333C27.1667 21.5652 26.4643 19.8695 25.214 18.6193C23.9638 17.369 22.2681 16.6667 20.5 16.6667C18.7319 16.6667 17.0362 17.369 15.786 18.6193C14.5357 19.8695 13.8333 21.5652 13.8333 23.3333Z" stroke="white" stroke-width="2" stroke-linecap="round" stroke-linejoin="round"/>
</svg>