<svg xmlns="http://www.w3.org/2000/svg" width="41" height="40" viewBox="0 0 41 40" fill="none">
  <path d="M8.83331 16.6667V10C8.83331 8.67392 9.3601 7.40215 10.2978 6.46447C11.2355 5.52678 12.5072 5 13.8333 5H27.1666C28.4927 5 29.7645 5.52678 30.7022 6.46447C31.6399 7.40215 32.1666 8.67392 32.1666 10V16.6667M27.1666 25V21.6667C27.1666 20.6778 27.4599 19.7111 28.0093 18.8888C28.5587 18.0666 29.3396 17.4257 30.2532 17.0473C31.1669 16.6688 32.1722 16.5698 33.1421 16.7627C34.112 16.9557 35.0029 17.4319 35.7022 18.1311C36.4014 18.8304 36.8776 19.7213 37.0706 20.6912C37.2635 21.6611 37.1645 22.6665 36.786 23.5801C36.4076 24.4937 35.7667 25.2746 34.9445 25.824C34.1223 26.3734 33.1556 26.6667 32.1666 26.6667V31.6667H8.83332V26.6667C7.84441 26.6667 6.87771 26.3734 6.05546 25.824C5.23322 25.2746 4.59236 24.4937 4.21392 23.5801C3.83548 22.6665 3.73646 21.6611 3.92939 20.6912C4.12231 19.7213 4.59852 18.8304 5.29778 18.1311C5.99704 17.4319 6.88796 16.9557 7.85786 16.7627C8.82777 16.5698 9.8331 16.6688 10.7467 17.0473C11.6604 17.4257 12.4413 18.0666 12.9907 18.8888C13.5401 19.7111 13.8333 20.6778 13.8333 21.6667V25M13.8333 20H27.1666M12.1666 31.6667V35M28.8333 31.6667V35" stroke="white" stroke-width="2" stroke-linecap="round" stroke-linejoin="round"/>
</svg>